<svg width="793" height="552" viewBox="0 0 793 552" fill="none" xmlns="http://www.w3.org/2000/svg">
<g id="login_fram" clip-path="url(#clip0)">
<path id="Vector" d="M492.342 72.9538C495.089 72.9538 497.316 70.7268 497.316 67.9797C497.316 65.2325 495.089 63.0056 492.342 63.0056C489.595 63.0056 487.368 65.2325 487.368 67.9797C487.368 70.7268 489.595 72.9538 492.342 72.9538Z" fill="white"/>
<g id="girl">
<path id="Vector_2" d="M158 551.732C245.261 551.732 316 546.359 316 539.732C316 533.104 245.261 527.732 158 527.732C70.739 527.732 0 533.104 0 539.732C0 546.359 70.739 551.732 158 551.732Z" fill="#E6E6E6"/>
<path id="Vector_3" d="M120.772 122.42C148.269 110.724 182.517 118.134 215.963 123.277C216.274 117.049 220.047 109.469 216.095 105.124C211.294 99.8455 211.736 94.2989 214.625 88.7205C222.013 74.4555 211.428 59.2768 200.741 46.6558C198.332 43.8175 195.288 41.5874 191.855 40.1467C188.422 38.706 184.698 38.0952 180.985 38.364L161.188 39.7781C156.37 40.1222 151.773 41.9294 148.011 44.9578C144.248 47.9863 141.5 52.0915 140.135 56.7243C135.408 63.1534 132.878 69.5648 134.471 75.9428C127.39 80.7816 126.2 86.6226 129.382 93.2072C132.08 97.3531 132.051 101.389 129.259 105.313C125.593 110.316 122.784 115.894 120.949 121.819L120.772 122.42Z" fill="#2F2E41"/>
<path id="Vector_4" d="M774.209 476.963H213.791C208.807 476.963 204.028 474.983 200.504 471.459C196.98 467.935 195 463.156 195 458.172C398.151 434.562 597.485 434.562 793 458.172C793 463.156 791.02 467.935 787.496 471.459C783.972 474.983 779.193 476.963 774.209 476.963Z" fill="#2F2E41"/>
<path id="Vector_5" d="M793 459.277L195 458.172L264.306 341.556L264.638 341.004V83.9964C264.637 80.8768 265.252 77.7878 266.445 74.9057C267.639 72.0236 269.389 69.4049 271.595 67.199C273.8 64.9932 276.419 63.2435 279.301 62.0498C282.183 60.8561 285.272 60.2419 288.392 60.2422H696.292C699.411 60.2419 702.501 60.8561 705.383 62.0498C708.265 63.2435 710.883 64.9932 713.089 67.199C715.295 69.4049 717.045 72.0236 718.239 74.9057C719.432 77.7878 720.046 80.8768 720.046 83.9964V342.772L793 459.277Z" fill="#3F3D56"/>
<path id="Vector_6" d="M287.85 76.8225C285.799 76.8248 283.832 77.6408 282.382 79.0914C280.931 80.5419 280.115 82.5086 280.113 84.5601V318.896C280.115 320.948 280.931 322.915 282.382 324.365C283.832 325.816 285.799 326.632 287.85 326.634H700.15C702.201 326.632 704.168 325.816 705.618 324.365C707.069 322.914 707.885 320.948 707.887 318.896V84.5601C707.885 82.5087 707.069 80.542 705.618 79.0915C704.168 77.6409 702.201 76.8249 700.15 76.8225H287.85Z" fill="white"/>
<path id="Vector_7" d="M289.578 357.584C288.944 357.585 288.324 357.767 287.79 358.109C287.256 358.451 286.831 358.939 286.565 359.514L265.21 405.939C264.977 406.445 264.876 407 264.914 407.555C264.953 408.11 265.13 408.646 265.43 409.114C265.73 409.582 266.143 409.968 266.631 410.235C267.119 410.501 267.666 410.641 268.222 410.641H717.314C717.879 410.641 718.435 410.497 718.929 410.222C719.423 409.946 719.838 409.549 720.135 409.069C720.432 408.588 720.601 408.039 720.626 407.474C720.652 406.909 720.532 406.348 720.279 405.842L697.067 359.417C696.793 358.865 696.37 358.401 695.846 358.077C695.322 357.753 694.718 357.582 694.102 357.584H289.578Z" fill="#2F2E41"/>
<path id="Vector_8" d="M448.2 419.484C447.471 419.485 446.763 419.726 446.184 420.169C445.605 420.613 445.189 421.234 444.998 421.938L439.641 441.834C439.509 442.326 439.491 442.841 439.59 443.341C439.689 443.84 439.901 444.31 440.211 444.714C440.521 445.118 440.919 445.445 441.375 445.671C441.832 445.896 442.334 446.013 442.843 446.013H544.717C545.246 446.013 545.767 445.887 546.237 445.644C546.706 445.402 547.112 445.051 547.418 444.62C547.725 444.189 547.924 443.692 547.999 443.168C548.074 442.645 548.023 442.112 547.85 441.612L540.963 421.715C540.737 421.064 540.314 420.499 539.752 420.099C539.191 419.7 538.519 419.485 537.829 419.484H448.2Z" fill="#2F2E41"/>
<path id="Vector_9" d="M720.046 337.135V341.556H264.306L264.649 341.004V337.135H720.046Z" fill="#2F2E41"/>
<path id="Vector_10" d="M653.32 247.149H334.68C333.116 247.148 331.616 246.525 330.51 245.419C329.403 244.313 328.781 242.813 328.779 241.249V162.208C328.781 160.643 329.403 159.144 330.51 158.037C331.616 156.931 333.116 156.309 334.68 156.307H653.32C654.884 156.309 656.384 156.931 657.49 158.037C658.597 159.144 659.219 160.643 659.221 162.208V241.249C659.219 242.813 658.597 244.313 657.49 245.419C656.384 246.525 654.884 247.148 653.32 247.149ZM334.68 158.667C333.741 158.668 332.841 159.042 332.178 159.705C331.514 160.369 331.141 161.269 331.14 162.208V241.249C331.141 242.187 331.514 243.087 332.178 243.751C332.841 244.415 333.741 244.788 334.68 244.789H653.32C654.259 244.788 655.159 244.415 655.822 243.751C656.486 243.087 656.859 242.187 656.86 241.249V162.208C656.859 161.269 656.486 160.369 655.822 159.705C655.159 159.042 654.259 158.668 653.32 158.667L334.68 158.667Z" fill="#E6E6E6"/>
<path id="Vector_11" d="M384.19 222.732C397.465 222.732 408.227 211.97 408.227 198.695C408.227 185.42 397.465 174.659 384.19 174.659C370.915 174.659 360.154 185.42 360.154 198.695C360.154 211.97 370.915 222.732 384.19 222.732Z" fill="#E6E6E6"/>
<path id="Vector_12" d="M439.703 182.671C439.176 182.67 438.655 182.773 438.168 182.974C437.681 183.175 437.239 183.47 436.866 183.842C436.494 184.214 436.198 184.656 435.996 185.143C435.794 185.629 435.691 186.151 435.691 186.677C435.691 187.204 435.794 187.725 435.996 188.212C436.198 188.698 436.494 189.14 436.866 189.512C437.239 189.884 437.681 190.179 438.168 190.38C438.655 190.581 439.176 190.684 439.703 190.683H628.561C629.623 190.683 630.642 190.261 631.393 189.51C632.145 188.759 632.567 187.74 632.567 186.677C632.567 185.615 632.145 184.596 631.393 183.845C630.642 183.093 629.623 182.671 628.561 182.671H439.703Z" fill="#E6E6E6"/>
<path id="Vector_13" d="M439.703 206.708C438.641 206.708 437.622 207.13 436.87 207.881C436.119 208.632 435.697 209.651 435.697 210.714C435.697 211.776 436.119 212.795 436.87 213.546C437.622 214.298 438.641 214.72 439.703 214.72H520.969C522.031 214.72 523.05 214.298 523.802 213.546C524.553 212.795 524.975 211.776 524.975 210.714C524.975 209.651 524.553 208.632 523.802 207.881C523.05 207.13 522.031 206.708 520.969 206.708H439.703Z" fill="#E6E6E6"/>
<path id="Vector_14" d="M263.522 208.328L204.619 239.644L203.873 213.547C223.099 210.338 241.39 204.75 258.303 195.653L264.463 180.433C265.134 178.774 266.225 177.319 267.629 176.209C269.033 175.1 270.701 174.375 272.47 174.105C274.238 173.834 276.047 174.029 277.717 174.669C279.388 175.309 280.864 176.372 282 177.755C283.661 179.778 284.492 182.356 284.323 184.969C284.154 187.581 282.999 190.031 281.091 191.824L263.522 208.328Z" fill="#FFB8B8"/>
<path id="Vector_15" d="M119.598 389.133C119.168 387.557 119.077 385.908 119.33 384.294C119.584 382.68 120.176 381.138 121.067 379.77L134.007 359.912C137.067 355.215 141.763 351.823 147.184 350.393C152.604 348.962 158.363 349.597 163.342 352.173C157.904 361.429 158.662 369.549 165.22 376.606C155.039 381.576 145.63 387.991 137.284 395.651C135.76 396.69 134.01 397.35 132.18 397.575C130.35 397.801 128.492 397.586 126.762 396.948C125.032 396.31 123.479 395.268 122.233 393.909C120.987 392.549 120.083 390.912 119.598 389.133Z" fill="#2F2E41"/>
<path id="Vector_16" d="M266.205 363.168C264.247 366.432 261.483 369.137 258.178 371.025C254.874 372.912 251.139 373.919 247.334 373.948L161.374 374.599L157.646 352.976L195.672 341.792L169 318.5L201.5 281.5L262.304 335.503C266.024 338.97 268.441 343.61 269.151 348.645C269.861 353.681 268.821 358.808 266.205 363.168Z" fill="url(#paint0_linear)"/>
<path id="Vector_17" d="M147.953 511.045H127.821C109.746 387.147 91.3474 262.903 145.716 216.53L209.838 226.968L201.636 281.398L165.847 322.406L147.953 511.045Z" fill="url(#paint1_linear)"/>
<path id="Vector_18" d="M165.649 539.112C164.073 539.541 162.424 539.633 160.81 539.38C159.197 539.127 157.655 538.535 156.286 537.643L134.427 534.705C129.73 531.645 126.338 526.949 124.907 521.528C123.477 516.108 124.111 510.35 126.686 505.37C135.943 510.808 144.063 510.049 151.12 503.491C156.106 513.558 164.321 512.944 172.167 521.426C173.205 522.949 173.865 524.699 174.091 526.529C174.316 528.36 174.101 530.217 173.464 531.948C172.826 533.678 171.784 535.231 170.425 536.477C169.066 537.723 167.428 538.626 165.649 539.112Z" fill="#2F2E41"/>
<path id="Vector_19" d="M195.672 133.767L158.391 124.82C164.583 112.146 165.093 98.0438 162.119 83.0659L187.47 82.3203C188.264 100.946 190.667 118.347 195.672 133.767Z" fill="#FFB8B8"/>
<path id="Vector_20" d="M205.918 249.418C178.779 267.911 159.603 250.051 144.97 222.495C147.004 205.633 143.711 185.454 137.614 163.528C134.902 153.858 135.914 143.521 140.451 134.561C144.988 125.6 152.719 118.666 162.119 115.127L194.18 128.548C221.404 150.739 226.762 174.775 216.549 200.127L205.918 249.418Z" fill="url(#paint2_linear)"/>
<path id="Vector_21" d="M127.821 152.408L97.9969 168.065L150.935 199.381L158.301 217.55C158.793 218.763 159.032 220.063 159.005 221.372C158.978 222.68 158.684 223.969 158.143 225.16C157.601 226.351 156.822 227.42 155.854 228.3C154.886 229.181 153.749 229.855 152.512 230.281C151.106 230.766 149.606 230.919 148.131 230.728C146.656 230.536 145.245 230.006 144.009 229.179C142.773 228.351 141.745 227.248 141.006 225.957C140.268 224.666 139.838 223.222 139.75 221.737L139.005 209.074L71.7216 186.87C69.4546 186.122 67.3876 184.868 65.6771 183.203C63.9666 181.537 62.6575 179.505 61.8489 177.259C60.6703 173.985 60.6103 170.412 61.6783 167.101C62.7464 163.789 64.8822 160.925 67.7515 158.956L121.856 121.838L127.821 152.408Z" fill="#FFB8B8"/>
<path id="Vector_22" d="M157.646 155.39C145.207 149.939 133.896 155.86 119.62 160.609L117.383 121.092C131.559 113.536 145.075 111.499 157.646 117.364L157.646 155.39Z" fill="#007FDA"/>
<path id="Vector_23" d="M172.525 101.895C185.671 101.895 196.327 91.2381 196.327 78.0925C196.327 64.947 185.671 54.2904 172.525 54.2904C159.379 54.2904 148.723 64.947 148.723 78.0925C148.723 91.2381 159.379 101.895 172.525 101.895Z" fill="#FFB8B8"/>
<path id="Vector_24" d="M201 75.0893C177.434 77.3974 159.477 73.5432 148 62.5692V53.7315H199L201 75.0893Z" fill="#2F2E41"/>
</g>
<g id="lock">
<path id="Vector_25" d="M683.375 155.75C726.108 155.75 760.75 121.108 760.75 78.3752C760.75 35.6421 726.108 1 683.375 1C640.642 1 606 35.6421 606 78.3752C606 121.108 640.642 155.75 683.375 155.75Z" fill="#007FDA"/>
<path id="Vector_26" d="M715.431 112.089H651.32C650.147 112.088 649.024 111.621 648.195 110.792C647.366 109.964 646.899 108.84 646.898 107.667V68.9797C646.9 67.8074 647.366 66.6835 648.195 65.8546C649.024 65.0257 650.148 64.5595 651.32 64.5582H715.431C716.603 64.5595 717.727 65.0257 718.556 65.8546C719.385 66.6835 719.851 67.8074 719.852 68.9797V107.667C719.851 108.84 719.385 109.964 718.556 110.792C717.727 111.621 716.603 112.088 715.431 112.089ZM651.32 68.9797V107.667H715.434L715.431 68.9797L651.32 68.9797Z" fill="white"/>
<path id="Vector_27" d="M703.272 68.9797H663.479V51.2939C663.479 38.4841 671.847 29.1867 683.375 29.1867C694.904 29.1867 703.272 38.4841 703.272 51.2939L703.272 68.9797ZM667.9 64.5583H698.85V51.2939C698.85 40.8809 692.487 33.6082 683.375 33.6082C674.264 33.6082 667.9 40.881 667.9 51.2939L667.9 64.5583Z" fill="white"/>
<path id="Vector_28" d="M683.375 91.6395C685.817 91.6395 687.797 89.66 687.797 87.2181C687.797 84.7762 685.817 82.7967 683.375 82.7967C680.933 82.7967 678.954 84.7762 678.954 87.2181C678.954 89.66 680.933 91.6395 683.375 91.6395Z" fill="white"/>
</g>
</g>
<defs>
<linearGradient id="paint0_linear" x1="213.507" y1="276.179" x2="213.507" y2="374.599" gradientUnits="userSpaceOnUse">
<stop stop-color="#2F2E41"/>
<stop offset="1" stop-color="#3F3B8B" stop-opacity="0.51"/>
</linearGradient>
<linearGradient id="paint1_linear" x1="159.72" y1="216.53" x2="159.72" y2="511.045" gradientUnits="userSpaceOnUse">
<stop stop-color="#2F2E41"/>
<stop offset="1" stop-color="#3F3B8B" stop-opacity="0.51"/>
</linearGradient>
<linearGradient id="paint2_linear" x1="178.747" y1="115.127" x2="178.747" y2="256.989" gradientUnits="userSpaceOnUse">
<stop offset="0.282221" stop-color="#007FDA"/>
<stop offset="0.730955" stop-color="#007FDA" stop-opacity="0"/>
</linearGradient>
<clipPath id="clip0">
<rect width="793" height="551.732" fill="white"/>
</clipPath>
</defs>
</svg>
